<svg xmlns="http://www.w3.org/2000/svg" id="language" viewBox="0 0 24 24">
  <path d="m12,2C6.49,2,2,6.49,2,12s4.49,10,10,10,10-4.49,10-10S17.51,2,12,2Zm9,10c0,1.05-.19,2.06-.52,3h-3.75c.22-1.27.27-2.32.27-3,0-1.06-.1-2.06-.26-3h3.74c.33.94.52,1.95.52,3Zm-.95-4h-3.51c-.41-1.79-1.06-3.3-1.72-4.54,2.29.76,4.17,2.41,5.24,4.54Zm-4.05,4c0,.53-.03,1.61-.28,3h-7.45c-.17-.93-.27-1.93-.27-3,0-.53.03-1.61.28-3h7.45c.17.93.27,1.93.27,3Zm-2.5-8.86c.73,1.22,1.52,2.84,2.02,4.86h-7.03c.35-1.46.98-3.15,2.02-4.87.49-.08.98-.13,1.49-.13s1.01.05,1.5.14Zm-4.33.32c-.85,1.6-1.39,3.16-1.71,4.54h-3.52c1.06-2.13,2.94-3.78,5.23-4.54Zm-1.92,11.54h-3.74c-.33-.94-.52-1.95-.52-3s.19-2.06.52-3h3.75c-.22,1.27-.27,2.32-.27,3,0,1.06.1,2.06.26,3Zm-3.31,1h3.51c.41,1.79,1.06,3.3,1.72,4.54-2.29-.76-4.17-2.41-5.24-4.54Zm6.55,4.86c-.73-1.22-1.52-2.84-2.02-4.86h7.03c-.35,1.46-.98,3.15-2.02,4.87-.49.08-.98.13-1.49.13s-1.01-.05-1.5-.14Zm4.33-.32c.85-1.6,1.39-3.16,1.71-4.54h3.52c-1.06,2.13-2.94,3.78-5.23,4.54Z" style="fill:#19242a;stroke-width:0"></path>
</svg>
